# xmcd
#
# Track frame offsets: 
#        150
#        13160
#        25995
#        37660
#        51350
#        64762
#        77250
#        91065
#        104607
#        116715
#        128640
#        141407
#        152890
#        164772
#        177547
#
# Disc length: 2557 seconds
#
# Revision: 4
# Processed by: cddbd v1.5.2PL0 Copyright (c) Steve Scherf et al.
# Submitted via: ExactAudioCopy v1.0b4
#
DISCID=c909fb0f
DTITLE=Various Artist - Living The Blues-Blues Masters [CD1]
DYEAR=1997
DGENRE=Blues
TTITLE0=Muddy Waters - I'm Your Hoochie Coochie Man
TTITLE1=Willie Mae 'Big Mama' Thornton - Hound Dog
TTITLE2=Freddy King - Hide Away
TTITLE3=Guitar Slim - The Things That I Used To Do
TTITLE4=Bo Diddley - I'm A Man
TTITLE5=Wynonie Harris - Good Rockin' Tonight
TTITLE6=Little Walter - You're So Fine
TTITLE7=Roy Brown - Hard Luck Blues
TTITLE8=Eddie Boyd - Five Long Years
TTITLE9=Bobby Bland - Turn On Your Love Light
TTITLE10=Elmore James - The Sky Is Crying
TTITLE11=Jimmy Liggins - Drunk
TTITLE12=Little Junior Parker - Next Time You See Me
TTITLE13=Howlin' Wolf - Back Door Man
TTITLE14=Lowell Fulson - Reconsider Baby
EXTD=
EXTT0=
EXTT1=
EXTT2=
EXTT3=
EXTT4=
EXTT5=
EXTT6=
EXTT7=
EXTT8=
EXTT9=
EXTT10=
EXTT11=
EXTT12=
EXTT13=
EXTT14=
PLAYORDER=
